name Walk3.mot
datacolumns 19
datarows 17
range 1.92000000 2.00000000
endheader

                time	   L_ground_force_vx	   L_ground_force_vy	   L_ground_force_vz	   L_ground_force_px	   L_ground_force_py	   L_ground_force_pz	   R_ground_force_vx	   R_ground_force_vy	   R_ground_force_vz	   R_ground_force_px	   R_ground_force_py	   R_ground_force_pz	   L_ground_torque_x	   L_ground_torque_y	   L_ground_torque_z	   R_ground_torque_x	   R_ground_torque_y	   R_ground_torque_z	
          1.92000000	         -0.00000000	          0.00000000	          0.00000000	          0.00000000	          0.00000000	          0.00000000	         12.78320118	        661.57670145	        -18.57090285	         -0.12102314	          0.00000000	          0.34653100	          0.00000000	         -0.00000000	          0.00000000	          0.00000000	          2.10583958	          0.00000000	
          1.92500000	         -0.00000000	          0.00000000	         -0.00000000	          0.00000000	          0.00000000	          0.00000000	         15.26150737	        673.70526402	        -19.36673103	         -0.11940776	          0.00000000	          0.34636557	          0.00000000	         -0.00000000	          0.00000000	          0.00000000	          1.96028358	          0.00000000	
          1.93000000	          0.00000000	          0.00000000	         -0.00000000	         -0.00000000	          0.00000000	         -0.00000000	         17.92238507	        685.95018056	        -20.71415291	         -0.11787545	          0.00000000	          0.34616709	          0.00000000	         -0.00000000	          0.00000000	          0.00000000	          1.76243573	          0.00000000	
          1.93500000	          0.00000000	         -0.00000001	         -0.00000000	         -0.00000000	          0.00000000	         -0.00000000	         21.01752910	        698.14960314	        -23.08592680	         -0.11647551	          0.00000000	          0.34599696	          0.00000000	          0.00000000	          0.00000000	          0.00000000	          1.41328036	          0.00000000	
          1.94000000	          0.00000000	         -0.00000006	          0.00000000	         -0.00000000	          0.00000000	         -0.00000000	         24.88666198	        710.22969730	        -25.51339264	         -0.11524478	          0.00000000	          0.34591977	          0.00000000	          0.00000000	          0.00000000	          0.00000000	          1.08240929	          0.00000000	
          1.94500000	         -0.00000001	         -0.00000009	          0.00000001	          0.00000000	          0.00000000	          0.00000000	         29.39953211	        722.25506638	        -26.42034579	         -0.11414020	          0.00000000	          0.34574649	          0.00000000	          0.00000000	          0.00000000	          0.00000000	          0.88080986	          0.00000000	
          1.95000000	         -0.00000003	          0.00000030	          0.00000000	          0.00000000	          0.00000000	          0.00000000	         33.85541770	        734.07730678	        -26.31696211	         -0.11325230	          0.00000000	          0.34559524	          0.00000000	         -0.00000000	          0.00000000	          0.00000000	          0.77575946	          0.00000000	
          1.95500000	         -0.00000004	          0.00000163	         -0.00000005	          0.00000000	          0.00000000	          0.00000000	         38.24126703	        745.93691149	        -25.99693677	         -0.11275666	          0.00000000	          0.34535188	          0.00000000	         -0.00000000	          0.00000000	          0.00000000	          0.85944188	          0.00000000	
          1.96000000	          0.00000022	          0.00000148	         -0.00000017	         -0.00000001	          0.00000000	         -0.00000000	         43.25520923	        756.93285235	        -25.40913030	         -0.11231705	          0.00000000	          0.34504031	          0.00000000	          0.00000000	          0.00000000	          0.00000000	          1.01538827	          0.00000000	
          1.96500000	          0.00000092	         -0.00001120	          0.00000003	         -0.00000004	          0.00000000	         -0.00000002	         49.10400547	        766.94965670	        -24.59833619	         -0.11186402	          0.00000000	          0.34452906	          0.00000000	          0.00000001	          0.00000000	          0.00000000	          1.18939648	          0.00000000	
          1.97000000	          0.00000036	         -0.00004274	          0.00000163	         -0.00000003	          0.00000000	         -0.00000002	         55.49432370	        775.98472014	        -23.85148299	         -0.11140821	          0.00000000	          0.34420538	          0.00000000	          0.00000003	          0.00000000	          0.00000000	          1.40925606	          0.00000000	
          1.97500000	         -0.00000759	         -0.00000771	          0.00000394	          0.00000030	          0.00000000	          0.00000018	         62.09194218	        783.51803761	        -23.18430196	         -0.11098915	          0.00000000	          0.34426298	          0.00000000	         -0.00000003	          0.00000000	          0.00000000	          1.56668835	          0.00000000	
          1.98000000	         -0.00002299	          0.00037388	         -0.00000480	          0.00000103	          0.00000000	          0.00000061	         68.55670657	        790.03444895	        -22.33460019	         -0.11068564	          0.00000000	          0.34402057	          0.00000000	         -0.00000037	          0.00000000	          0.00000000	          1.66296181	          0.00000000	
          1.98500000	          0.00001033	          0.00104132	         -0.00004877	         -0.00000009	          0.00000000	         -0.00000006	         74.64092094	        795.22738198	        -21.30327174	         -0.11037258	          0.00000000	          0.34351713	          0.00000000	         -0.00000067	          0.00000000	          0.00000000	          1.76900856	          0.00000000	
          1.99000000	          0.00023863	         -0.00074331	         -0.00008231	         -0.00000969	          0.00000000	         -0.00000577	         80.32846290	        798.58444604	        -20.23062815	         -0.11009955	          0.00000000	          0.34326104	          0.00000000	          0.00000166	          0.00000000	          0.00000000	          1.85320263	          0.00000000	
          1.99500000	          0.00052403	         -0.01152521	          0.00023582	         -0.00002436	          0.00000000	         -0.00001437	         85.73295275	        800.36830317	        -19.14669336	         -0.10979999	          0.00000000	          0.34294900	          0.00000000	          0.00001051	          0.00000000	          0.00000000	          1.97998504	          0.00000000	
          2.00000000	         -0.00083925	         -0.02305786	          0.00137045	          0.00002613	          0.00000000	          0.00001584	         91.02980645	        800.19938902	        -18.13353991	         -0.10927904	          0.00000000	          0.34259384	          0.00000000	          0.00001199	          0.00000000	          0.00000000	          2.11360060	          0.00000000	
